<mxfile host="app.diagrams.net" agent="Mozilla/5.0 (Windows NT 10.0; Win64; x64) AppleWebKit/537.36 (KHTML, like Gecko) Chrome/126.0.0.0 YaBrowser/24.7.0.0 Safari/537.36" version="24.7.17">
  <diagram name="Страница — 1" id="xPLfdgj9lPwL6wqunQqB">
    <mxGraphModel dx="1380" dy="906" grid="1" gridSize="10" guides="1" tooltips="1" connect="1" arrows="1" fold="1" page="1" pageScale="1" pageWidth="827" pageHeight="1169" math="0" shadow="0">
      <root>
        <mxCell id="0" />
        <mxCell id="1" parent="0" />
        <mxCell id="HYxui5Q6MqvDf9-5sTCJ-18" value="" style="rounded=0;whiteSpace=wrap;html=1;fillColor=none;dashed=1;dashPattern=12 12;" vertex="1" parent="1">
          <mxGeometry width="770" height="600" as="geometry" />
        </mxCell>
        <mxCell id="HYxui5Q6MqvDf9-5sTCJ-6" style="edgeStyle=orthogonalEdgeStyle;rounded=0;orthogonalLoop=1;jettySize=auto;html=1;entryX=0;entryY=0.5;entryDx=0;entryDy=0;startArrow=classic;startFill=1;" edge="1" parent="1" source="HYxui5Q6MqvDf9-5sTCJ-1" target="HYxui5Q6MqvDf9-5sTCJ-5">
          <mxGeometry relative="1" as="geometry" />
        </mxCell>
        <mxCell id="HYxui5Q6MqvDf9-5sTCJ-1" value="" style="rounded=1;whiteSpace=wrap;html=1;" vertex="1" parent="1">
          <mxGeometry x="60" y="60" width="150" height="480" as="geometry" />
        </mxCell>
        <mxCell id="HYxui5Q6MqvDf9-5sTCJ-2" value="Frontend" style="text;html=1;align=center;verticalAlign=middle;whiteSpace=wrap;rounded=0;" vertex="1" parent="1">
          <mxGeometry x="105" y="70" width="60" height="30" as="geometry" />
        </mxCell>
        <mxCell id="HYxui5Q6MqvDf9-5sTCJ-3" value="Mobile" style="rounded=1;whiteSpace=wrap;html=1;" vertex="1" parent="1">
          <mxGeometry x="75" y="120" width="120" height="130" as="geometry" />
        </mxCell>
        <mxCell id="HYxui5Q6MqvDf9-5sTCJ-4" value="Frontend" style="rounded=1;whiteSpace=wrap;html=1;" vertex="1" parent="1">
          <mxGeometry x="75" y="360" width="120" height="130" as="geometry" />
        </mxCell>
        <mxCell id="HYxui5Q6MqvDf9-5sTCJ-8" style="edgeStyle=orthogonalEdgeStyle;rounded=0;orthogonalLoop=1;jettySize=auto;html=1;entryX=0;entryY=0.5;entryDx=0;entryDy=0;startArrow=classic;startFill=1;" edge="1" parent="1" source="HYxui5Q6MqvDf9-5sTCJ-5" target="HYxui5Q6MqvDf9-5sTCJ-7">
          <mxGeometry relative="1" as="geometry" />
        </mxCell>
        <mxCell id="HYxui5Q6MqvDf9-5sTCJ-5" value="Reverse proxy" style="rounded=0;whiteSpace=wrap;html=1;" vertex="1" parent="1">
          <mxGeometry x="250" y="60" width="70" height="480" as="geometry" />
        </mxCell>
        <mxCell id="HYxui5Q6MqvDf9-5sTCJ-16" style="edgeStyle=orthogonalEdgeStyle;rounded=0;orthogonalLoop=1;jettySize=auto;html=1;entryX=0;entryY=0.5;entryDx=0;entryDy=0;startArrow=classic;startFill=1;" edge="1" parent="1" source="HYxui5Q6MqvDf9-5sTCJ-7" target="HYxui5Q6MqvDf9-5sTCJ-9">
          <mxGeometry relative="1" as="geometry" />
        </mxCell>
        <mxCell id="HYxui5Q6MqvDf9-5sTCJ-7" value="API" style="rounded=0;whiteSpace=wrap;html=1;" vertex="1" parent="1">
          <mxGeometry x="350" y="60" width="70" height="480" as="geometry" />
        </mxCell>
        <mxCell id="HYxui5Q6MqvDf9-5sTCJ-9" value="" style="rounded=1;whiteSpace=wrap;html=1;" vertex="1" parent="1">
          <mxGeometry x="470" y="60" width="240" height="480" as="geometry" />
        </mxCell>
        <mxCell id="HYxui5Q6MqvDf9-5sTCJ-10" value="Backend" style="text;html=1;align=center;verticalAlign=middle;whiteSpace=wrap;rounded=0;" vertex="1" parent="1">
          <mxGeometry x="560" y="70" width="60" height="30" as="geometry" />
        </mxCell>
        <mxCell id="HYxui5Q6MqvDf9-5sTCJ-11" value="Сервис профиля клиента" style="rounded=1;whiteSpace=wrap;html=1;" vertex="1" parent="1">
          <mxGeometry x="480" y="120" width="220" height="60" as="geometry" />
        </mxCell>
        <mxCell id="HYxui5Q6MqvDf9-5sTCJ-12" value="Сервис авторизации" style="rounded=1;whiteSpace=wrap;html=1;" vertex="1" parent="1">
          <mxGeometry x="480" y="190" width="220" height="60" as="geometry" />
        </mxCell>
        <mxCell id="HYxui5Q6MqvDf9-5sTCJ-13" value="Сервис демонстрации тем(секций)" style="rounded=1;whiteSpace=wrap;html=1;" vertex="1" parent="1">
          <mxGeometry x="480" y="260" width="220" height="60" as="geometry" />
        </mxCell>
        <mxCell id="HYxui5Q6MqvDf9-5sTCJ-14" value="Сервис комментариев(ответов)" style="rounded=1;whiteSpace=wrap;html=1;" vertex="1" parent="1">
          <mxGeometry x="480" y="330" width="220" height="60" as="geometry" />
        </mxCell>
        <mxCell id="HYxui5Q6MqvDf9-5sTCJ-15" value="Сервис модерации контента" style="rounded=1;whiteSpace=wrap;html=1;" vertex="1" parent="1">
          <mxGeometry x="480" y="400" width="220" height="60" as="geometry" />
        </mxCell>
        <mxCell id="HYxui5Q6MqvDf9-5sTCJ-23" style="edgeStyle=orthogonalEdgeStyle;rounded=0;orthogonalLoop=1;jettySize=auto;html=1;entryX=1;entryY=0.5;entryDx=0;entryDy=0;startArrow=classic;startFill=1;" edge="1" parent="1" source="HYxui5Q6MqvDf9-5sTCJ-17" target="HYxui5Q6MqvDf9-5sTCJ-9">
          <mxGeometry relative="1" as="geometry" />
        </mxCell>
        <mxCell id="HYxui5Q6MqvDf9-5sTCJ-17" value="" style="rounded=1;whiteSpace=wrap;html=1;" vertex="1" parent="1">
          <mxGeometry x="840" y="60" width="240" height="480" as="geometry" />
        </mxCell>
        <mxCell id="HYxui5Q6MqvDf9-5sTCJ-19" value="Внешние сервисы" style="text;html=1;align=center;verticalAlign=middle;whiteSpace=wrap;rounded=0;" vertex="1" parent="1">
          <mxGeometry x="900" y="70" width="120" height="30" as="geometry" />
        </mxCell>
        <mxCell id="HYxui5Q6MqvDf9-5sTCJ-20" value="База данных" style="rounded=1;whiteSpace=wrap;html=1;" vertex="1" parent="1">
          <mxGeometry x="850" y="150" width="220" height="60" as="geometry" />
        </mxCell>
        <mxCell id="HYxui5Q6MqvDf9-5sTCJ-21" value="Почтовый сервис" style="rounded=1;whiteSpace=wrap;html=1;" vertex="1" parent="1">
          <mxGeometry x="850" y="260" width="220" height="60" as="geometry" />
        </mxCell>
        <mxCell id="HYxui5Q6MqvDf9-5sTCJ-22" value="Распределенный кэш" style="rounded=1;whiteSpace=wrap;html=1;" vertex="1" parent="1">
          <mxGeometry x="850" y="370" width="220" height="60" as="geometry" />
        </mxCell>
        <mxCell id="HYxui5Q6MqvDf9-5sTCJ-24" value="Внутренние сервисы" style="text;html=1;align=center;verticalAlign=middle;whiteSpace=wrap;rounded=0;" vertex="1" parent="1">
          <mxGeometry x="307.5" y="10" width="155" height="30" as="geometry" />
        </mxCell>
      </root>
    </mxGraphModel>
  </diagram>
</mxfile>
